# xmcd
#
# Track frame offsets:
# 182
# 14030
# 26742
# 42450
# 56115
# 65102
# 80165
# 97270
# 111945
# 122520
# 139575
# 150740
# 163010
# 174387
# 186030
# 198870
# 209255
# 220190
# 231655
# 245012
#
# Disc length: 3436 seconds
#
# Revision: 3
# Processed by: cddbd v1.5.2PL0 Copyright (c) Steve Scherf et al.
# Submitted via: TinyPlayer 2.8
#
DISCID=320d6a14
DTITLE=B.B. King - The Best of B.B. King
DYEAR=1986
DGENRE=Blues
TTITLE0=You Upset Me Baby
TTITLE1=Every Day (I Have the Blues)
TTITLE2=Five Long Years
TTITLE3=Sweet Little Angel
TTITLE4=Beautician Blues
TTITLE5=Dust My Broom
TTITLE6=Three O'clock Blues
TTITLE7=Ain't That Just Like a Woman
TTITLE8=I'm King
TTITLE9=Sweet Sixteen (Part 1)
TTITLE10=Sweet Sixteen (Part 2)
TTITLE11=Whole Lot of Lovin'
TTITLE12=Mean Ole Frisco
TTITLE13=Please Accept My Love
TTITLE14=Going Down Slow
TTITLE15=Blues for Me
TTITLE16=You Don't Know
TTITLE17=Early Every Morning
TTITLE18=Blues at Sunrise
TTITLE19=Please Love Me
EXTD=
EXTT0=
EXTT1=
EXTT2=
EXTT3=
EXTT4=
EXTT5=
EXTT6=
EXTT7=
EXTT8=
EXTT9=
EXTT10=
EXTT11=
EXTT12=
EXTT13=
EXTT14=
EXTT15=
EXTT16=
EXTT17=
EXTT18=
EXTT19=
PLAYORDER=
